<svg class="icon" style="width: 1em;height: 1em;vertical-align: middle;fill: currentColor;overflow: hidden;" viewBox="0 0 1024 1024" version="1.1" xmlns="http://www.w3.org/2000/svg"><path d="M192 384h640a42.666667 42.666667 0 0 1 42.666667 42.666667v362.666666a42.666667 42.666667 0 0 1-42.666667 42.666667H192v106.666667a21.333333 21.333333 0 0 0 21.333333 21.333333h725.333334a21.333333 21.333333 0 0 0 21.333333-21.333333V308.821333L949.909333 298.666667h-126.528A98.048 98.048 0 0 1 725.333333 200.618667V72.661333L716.714667 64H213.333333a21.333333 21.333333 0 0 0-21.333333 21.333333v298.666667zM128 832H42.666667a42.666667 42.666667 0 0 1-42.666667-42.666667V426.666667a42.666667 42.666667 0 0 1 42.666667-42.666667h85.333333V85.333333a85.333333 85.333333 0 0 1 85.333333-85.333333h530.026667L1024 282.453333V938.666667a85.333333 85.333333 0 0 1-85.333333 85.333333H213.333333a85.333333 85.333333 0 0 1-85.333333-85.333333v-106.666667zM106.666667 472.490667V746.666667h196.522666v-38.4H149.888v-82.944h138.154667v-38.4H149.888v-76.032h147.029333v-38.4H106.666667z m237.162666 0V746.666667h43.221334v-105.216h65.386666c64.277333 0 96.426667-28.416 96.426667-84.864 0-56.064-32.149333-84.096-95.701333-84.096h-109.333334z m43.221334 38.4h62.805333c18.837333 0 32.853333 3.456 41.728 10.752 8.874667 6.912 13.674667 18.432 13.674667 34.944 0 16.512-4.437333 28.416-13.290667 35.712-8.874667 6.912-22.912 10.752-42.112 10.752h-62.805333v-92.16z m291.84-43.776c-28.458667 0-51.733333 6.528-70.186667 19.968-19.968 13.824-29.568 33.024-29.568 57.216s9.984 42.624 30.293333 55.296c7.765333 4.608 28.074667 12.288 60.586667 23.04 29.184 9.216 46.165333 15.36 51.349333 18.048 16.256 8.448 24.746667 19.968 24.746667 34.56 0 11.52-5.909333 20.352-17.002667 27.264-11.072 6.528-26.581333 9.984-45.802666 9.984-21.781333 0-37.674667-4.224-48-11.904-11.477333-8.832-18.496-23.808-21.44-44.544h-42.858667c1.856 34.944 14.037333 60.288 36.202667 76.416 18.112 13.056 43.584 19.584 76.096 19.584 33.621333 0 59.84-7.296 78.314666-21.12 18.474667-14.208 27.712-33.792 27.712-58.368 0-25.344-11.456-44.928-34.346666-59.136-10.346667-6.144-33.258667-15.36-69.077334-26.88-24.384-8.064-39.530667-13.824-45.077333-16.896-12.565333-6.912-18.474667-16.512-18.474667-28.032 0-13.056 5.184-22.656 16.256-28.416 8.874667-4.992 21.418667-7.296 38.058667-7.296 19.2 0 33.984 3.456 43.584 11.136 9.6 7.296 16.64 19.584 20.309333 36.48h42.858667c-2.581333-29.952-13.290667-52.224-31.786667-66.432-17.344-13.44-41.728-19.968-72.746666-19.968z" fill="#407BF8" /></svg>