<svg class="icon" style="width: 1em;height: 1em;vertical-align: middle;fill: currentColor;overflow: hidden;" viewBox="0 0 1024 1024" version="1.1" xmlns="http://www.w3.org/2000/svg"><path d="M192 384h640a42.666667 42.666667 0 0 1 42.666667 42.666667v362.666666a42.666667 42.666667 0 0 1-42.666667 42.666667H192v106.666667a21.333333 21.333333 0 0 0 21.333333 21.333333h725.333334a21.333333 21.333333 0 0 0 21.333333-21.333333V308.821333L949.909333 298.666667h-126.528A98.048 98.048 0 0 1 725.333333 200.618667V72.661333L716.714667 64H213.333333a21.333333 21.333333 0 0 0-21.333333 21.333333v298.666667zM128 832H42.666667a42.666667 42.666667 0 0 1-42.666667-42.666667V426.666667a42.666667 42.666667 0 0 1 42.666667-42.666667h85.333333V85.333333a85.333333 85.333333 0 0 1 85.333333-85.333333h530.026667L1024 282.453333V938.666667a85.333333 85.333333 0 0 1-85.333333 85.333333H213.333333a85.333333 85.333333 0 0 1-85.333333-85.333333v-106.666667z m115.605333-359.509333l-127.488 129.408v-129.408H71.189333V746.666667h44.928v-94.464l33.408-32.64L257.813333 746.666667h60.672l-138.624-156.672 120.576-117.504h-56.832z m101.76 0V746.666667h204.288v-38.4h-159.36v-82.944h143.616v-38.4h-143.616v-76.032h152.832v-38.4h-197.76z m221.568 0l108.288 165.12V746.666667h44.928v-109.056l108.288-165.12h-54.144l-76.416 123.264-76.8-123.264h-54.144z" fill="#6034F5" /></svg>