<svg class="icon" style="width: 1em;height: 1em;vertical-align: middle;fill: currentColor;overflow: hidden;" viewBox="0 0 1024 1024" version="1.1" xmlns="http://www.w3.org/2000/svg"><path d="M192 384h640a42.666667 42.666667 0 0 1 42.666667 42.666667v362.666666a42.666667 42.666667 0 0 1-42.666667 42.666667H192v106.666667a21.333333 21.333333 0 0 0 21.333333 21.333333h725.333334a21.333333 21.333333 0 0 0 21.333333-21.333333V308.821333L949.909333 298.666667h-126.528A98.048 98.048 0 0 1 725.333333 200.618667V72.661333L716.714667 64H213.333333a21.333333 21.333333 0 0 0-21.333333 21.333333v298.666667zM128 832H42.666667a42.666667 42.666667 0 0 1-42.666667-42.666667V426.666667a42.666667 42.666667 0 0 1 42.666667-42.666667h85.333333V85.333333a85.333333 85.333333 0 0 1 85.333333-85.333333h530.026667L1024 282.453333V938.666667a85.333333 85.333333 0 0 1-85.333333 85.333333H213.333333a85.333333 85.333333 0 0 1-85.333333-85.333333v-106.666667z m76.629333-359.509333V746.666667h44.928v-111.744h71.04c15.36 0 27.264 3.072 35.328 9.984 7.68 6.528 12.288 17.28 13.824 32.256l3.456 33.792c1.536 15.36 5.376 27.264 11.904 35.712h48.768c-9.216-9.984-14.976-23.424-16.512-40.32l-4.608-44.16c-3.072-26.88-16.512-42.624-40.32-48v-0.768a59.605333 59.605333 0 0 0 34.944-24.192c7.68-11.136 11.52-23.808 11.52-38.016 0-26.112-8.832-46.08-25.728-59.904-16.128-12.672-38.4-18.816-66.432-18.816H204.629333z m44.928 38.4h71.04c18.432 0 31.872 3.072 40.32 9.984 8.448 6.528 12.672 17.28 12.672 32.256 0 13.824-4.224 24.576-12.672 32.256-9.216 7.296-22.656 11.136-40.32 11.136h-71.04v-85.632z m222.72-38.4V746.666667h44.928v-105.216h67.968c66.816 0 100.224-28.416 100.224-84.864 0-56.064-33.408-84.096-99.456-84.096h-113.664z m44.928 38.4h65.28c19.584 0 34.176 3.456 43.392 10.752 9.216 6.912 14.208 18.432 14.208 34.944 0 16.512-4.608 28.416-13.824 35.712-9.216 6.912-23.808 10.752-43.776 10.752h-65.28v-92.16z" fill="#713CBE" /></svg>