<?xml version="1.0" standalone="no"?><!DOCTYPE svg PUBLIC "-//W3C//DTD SVG 1.1//EN" "http://www.w3.org/Graphics/SVG/1.1/DTD/svg11.dtd"><svg t="1653749584585" class="icon" viewBox="0 0 1024 1024" version="1.1" xmlns="http://www.w3.org/2000/svg" p-id="37842" xmlns:xlink="http://www.w3.org/1999/xlink" width="350" height="350"><defs><style type="text/css"></style></defs><path d="M734.623386 475.810773a78.842242 78.842242 0 0 0-26.186891 4.467212c-9.499608-33.118595-40.043131-57.429728-76.176044-57.429728a78.855552 78.855552 0 0 0-27.69917 5.004751c-10.943286-30.678676-40.275553-52.704497-74.662742-52.704497a78.987633 78.987633 0 0 0-23.109091 3.446398v-97.667397c0-43.697378-35.555442-79.25282-79.25282-79.25282s-79.25282 35.555442-79.25282 79.25282v238.288832a257.78156 257.78156 0 0 1-3.426944-6.122834c-15.981826-29.619979-38.515494-40.298079-54.6079-44.05369-43.9984-10.129298-86.955509 19.065769-91.725791 22.424112-10.335098 7.360712-14.447022 20.752108-10.033052 32.649655l81.253492 218.924089a28.140464 28.140464 0 0 0 3.234453 6.20884l137.260019 198.309182a28.081079 28.081079 0 0 0 23.082471 12.089014h270.407091c11.815637 0 22.369847-7.388357 26.398835-18.490345l82.075671-226.080023a28.531588 28.531588 0 0 0 1.672005-9.581519V555.062569c0.002048-43.696354-35.553394-79.251796-79.250772-79.251796z m23.109092 224.749996l-73.688003 202.942263H448.041979L321.144704 720.188651l-71.467196-192.593854c8.800294-3.426944 19.189659-5.893484 27.852753-3.865167 4.550146 1.055626 11.37639 3.878478 17.928232 16.022782 18.745293 34.709713 40.476235 59.277841 52.826339 71.753883v42.943799c0 15.502648 12.554882 28.071864 28.071864 28.071864 15.515958 0 28.071864-12.569216 28.071864-28.071864V280.926488c0-12.747372 10.362743-23.110116 23.109092-23.110115 12.747372 0 23.110116 10.362743 23.110115 23.110115V501.345449c0 15.502648 12.554882 28.071864 28.071864 28.071864 15.515958 0 28.071864-12.569216 28.071864-28.071864v-46.946166c0-12.747372 10.361719-23.109092 23.109092-23.109092 12.747372 0 23.109092 10.362743 23.109092 23.109092l0.009215 47.316813c0 0.12389-0.009215 0.245732-0.009215 0.369622v46.946166c0 15.502648 12.555906 28.071864 28.071864 28.071864s28.071864-12.569216 28.071864-28.071864V502.085718c0-12.733038 10.362743-23.095781 23.110115-23.095781 12.747372 0 23.109092 10.362743 23.109092 23.095781v99.923017c0 15.502648 12.555906 28.071864 28.071864 28.071864 15.515958 0 28.071864-12.569216 28.071864-28.071864v-46.946166c0-12.747372 10.362743-23.109092 23.109092-23.109092 12.747372 0 23.109092 10.362743 23.109092 23.109092v145.4982z" fill="#3E3A39" p-id="37843"></path><path d="M319.966212 308.656374c-11.706081-19.381125-17.873966-41.723327-17.873966-64.586686 0-69.177788 56.279905-125.457693 125.444382-125.457693 69.192122 0 125.472027 56.279905 125.472027 125.457693 0 20.848353-5.208505 41.46326-15.022445 59.623914l49.344105 26.728527c14.282176-26.330235 21.821044-56.197994 21.821044-86.352441 0-100.142128-81.472603-181.601421-181.614731-181.60142-100.114483 0-181.587086 81.459293-181.587086 181.60142 0 33.087878 8.964116 65.449822 25.932967 93.589262l48.083703-29.002576z" fill="#3E3A39" p-id="37844"></path></svg>