<?xml version="1.0" standalone="no"?><!DOCTYPE svg PUBLIC "-//W3C//DTD SVG 1.1//EN" "http://www.w3.org/Graphics/SVG/1.1/DTD/svg11.dtd"><svg t="1653748524147" class="icon" viewBox="0 0 1024 1024" version="1.1" xmlns="http://www.w3.org/2000/svg" p-id="20070" xmlns:xlink="http://www.w3.org/1999/xlink" width="200" height="200"><defs><style type="text/css"></style></defs><path d="M401.5 179.6V402H179.1V179.6h222.4m10-57H169.1c-25.9 0-47 21-47 47V412c0 25.9 21 47 47 47h242.5c25.9 0 47-21 47-47V169.5c-0.1-25.9-21.1-46.9-47.1-46.9zM875.1 177H589.8c-15.7 0-28.5 12.8-28.5 28.5S574 234 589.8 234h285.3c15.7 0 28.5-12.8 28.5-28.5S890.9 177 875.1 177zM875.1 347.6H589.8c-15.7 0-28.5 12.8-28.5 28.5s12.8 28.5 28.5 28.5h285.3c15.7 0 28.5-12.8 28.5-28.5s-12.7-28.5-28.5-28.5zM399.8 622v222.4H177.4V622h222.4m10-57H167.3c-25.9 0-47 21-47 47v242.5c0 25.9 21 47 47 47h242.5c25.9 0 47-21 47-47V612c0-26-21-47-47-47z" fill="#6B6B6B" p-id="20071"></path><path d="M873.4 619.4H588.1c-15.7 0-28.5 12.8-28.5 28.5s12.8 28.5 28.5 28.5h285.3c15.7 0 28.5-12.8 28.5-28.5s-12.7-28.5-28.5-28.5zM873.4 790H588.1c-15.7 0-28.5 12.8-28.5 28.5s12.8 28.5 28.5 28.5h285.3c15.7 0 28.5-12.8 28.5-28.5S889.2 790 873.4 790z" fill="#6B6B6B" p-id="20072"></path></svg>