<?xml version="1.0" standalone="no"?><!DOCTYPE svg PUBLIC "-//W3C//DTD SVG 1.1//EN" "http://www.w3.org/Graphics/SVG/1.1/DTD/svg11.dtd"><svg t="1653748350632" class="icon" viewBox="0 0 1024 1024" version="1.1" xmlns="http://www.w3.org/2000/svg" p-id="19089" xmlns:xlink="http://www.w3.org/1999/xlink" width="200" height="200"><defs><style type="text/css"></style></defs><path d="M1021.44 1009.92c1.28-1.28 1.28-2.56 1.28-3.84v-1.28c0-1.28 1.28-3.84 1.28-6.4V576c0-33.28-12.8-65.28-35.84-90.88l-1.28-1.28c-6.4-5.12-11.52-10.24-19.2-14.08 19.2-19.2 30.72-44.8 30.72-72.96v-51.2c0-56.32-46.08-102.4-102.4-102.4s-102.4 46.08-102.4 102.4v51.2c0 28.16 11.52 55.04 30.72 72.96-28.16 19.2-48.64 49.92-55.04 85.76-3.84-3.84-8.96-5.12-14.08-5.12h-25.6V422.4c0-57.6-23.04-112.64-64-153.6-19.2-19.2-42.24-34.56-67.84-46.08 25.6-23.04 42.24-57.6 42.24-94.72 0-70.4-57.6-128-128-128S384 57.6 384 128c0 37.12 16.64 71.68 42.24 94.72C348.16 256 294.4 332.8 294.4 422.4v128h-25.6c-5.12 0-10.24 1.28-14.08 5.12-3.84-26.88-16.64-51.2-35.84-70.4-5.12-5.12-11.52-10.24-17.92-15.36 19.2-19.2 30.72-44.8 30.72-72.96v-51.2c0-56.32-46.08-102.4-102.4-102.4s-102.4 46.08-102.4 102.4v51.2c0 28.16 11.52 55.04 30.72 72.96C23.04 492.8 0 532.48 0 576v422.4c0 2.56 0 3.84 1.28 6.4v1.28c0 1.28 1.28 2.56 1.28 3.84v1.28c1.28 1.28 2.56 3.84 3.84 5.12 1.28 1.28 2.56 2.56 5.12 3.84 0 0 1.28 0 1.28 1.28 1.28 1.28 2.56 1.28 3.84 1.28h1.28c3.84 1.28 5.12 1.28 7.68 1.28h972.8c2.56 0 3.84 0 6.4-1.28h1.28c1.28 0 2.56-1.28 3.84-1.28 0 0 1.28 0 1.28-1.28 1.28-1.28 3.84-2.56 5.12-3.84 1.28-1.28 2.56-2.56 3.84-5.12l1.28-1.28c-1.28 1.28-1.28 1.28 0 0zM844.8 396.8v-51.2c0-28.16 23.04-51.2 51.2-51.2s51.2 23.04 51.2 51.2v51.2c0 28.16-23.04 51.2-51.2 51.2s-51.2-23.04-51.2-51.2z m51.2 102.4c20.48 0 39.68 7.68 55.04 21.76 14.08 15.36 21.76 34.56 21.76 55.04v326.4L819.2 636.16V576c0-42.24 34.56-76.8 76.8-76.8zM435.2 128c0-42.24 34.56-76.8 76.8-76.8s76.8 34.56 76.8 76.8-34.56 76.8-76.8 76.8-76.8-34.56-76.8-76.8z m-89.6 294.4c0-92.16 74.24-166.4 166.4-166.4 43.52 0 87.04 17.92 117.76 48.64 30.72 30.72 48.64 74.24 48.64 117.76v128H345.6V422.4zM76.8 396.8v-51.2c0-28.16 23.04-51.2 51.2-51.2s51.2 23.04 51.2 51.2v51.2c0 28.16-23.04 51.2-51.2 51.2s-51.2-23.04-51.2-51.2z m51.2 102.4c20.48 0 39.68 7.68 53.76 21.76 15.36 15.36 23.04 34.56 23.04 55.04v60.16L51.2 902.4V576c0-42.24 34.56-76.8 76.8-76.8zM70.4 972.8l213.76-371.2h456.96l213.76 371.2H70.4z" fill="#333333" p-id="19090"></path></svg>