<?xml version="1.0" standalone="no"?><!DOCTYPE svg PUBLIC "-//W3C//DTD SVG 1.1//EN" "http://www.w3.org/Graphics/SVG/1.1/DTD/svg11.dtd"><svg t="1653748707815" class="icon" viewBox="0 0 1024 1024" version="1.1" xmlns="http://www.w3.org/2000/svg" p-id="23595" xmlns:xlink="http://www.w3.org/1999/xlink" width="200" height="200"><defs><style type="text/css"></style></defs><path d="M928 608h-32v-192H128v480h480v32H128a32 32 0 0 1-32-32V416a32 32 0 0 1 32-32h768a32 32 0 0 1 32 32v192z m0 160v128a32 32 0 0 1-32 32h-128v-32h128v-128h32z m0-448h-32V224H498.752l-96-96H128v192H96V128a32 32 0 0 1 32-32h274.752a32 32 0 0 1 22.624 9.376L512 192h384a32 32 0 0 1 32 32v96z m-70.624 320H896a32 32 0 0 1 32 32v32a32 32 0 0 1-32 32h-38.624a174.912 174.912 0 0 1-15.68 37.824l27.328 27.328a32 32 0 0 1 0 45.248l-22.624 22.624a32 32 0 0 1-45.248 0l-27.328-27.328c-11.84 6.624-24.512 11.904-37.824 15.68V896a32 32 0 0 1-32 32h-32a32 32 0 0 1-32-32v-38.624a174.912 174.912 0 0 1-37.824-15.68l-27.328 27.328a32 32 0 0 1-45.248 0l-22.624-22.624a32 32 0 0 1 0-45.248l27.328-27.328a174.912 174.912 0 0 1-15.68-37.824H480a32 32 0 0 1-32-32v-32a32 32 0 0 1 32-32h38.624c3.776-13.312 9.056-25.984 15.68-37.824l-27.328-27.328a32 32 0 0 1 0-45.248l22.624-22.624a32 32 0 0 1 45.248 0l27.328 27.328c11.84-6.624 24.512-11.904 37.824-15.68V480a32 32 0 0 1 32-32h32a32 32 0 0 1 32 32v38.624c13.312 3.776 25.984 9.056 37.824 15.68l27.328-27.328a32 32 0 0 1 45.248 0l22.624 22.624a32 32 0 0 1 0 45.248l-27.328 27.328c6.624 11.84 11.904 24.512 15.68 37.824z m-30.784 8.704a142.912 142.912 0 0 0-12.8-30.88l-11.84-21.12 44.448-44.48-22.624-22.624-44.48 44.48-21.12-11.84a142.912 142.912 0 0 0-30.88-12.8L704 542.784V480h-32v62.816l-23.296 6.592c-10.784 3.072-21.12 7.36-30.88 12.8l-21.12 11.84-44.48-44.448-22.624 22.624 44.48 44.48-11.84 21.12c-5.44 9.728-9.76 20.096-12.8 30.88l-6.624 23.296H480v32h62.816l6.592 23.296c3.072 10.784 7.36 21.12 12.8 30.88l11.84 21.12-44.448 44.48 22.624 22.624 44.48-44.48 21.12 11.84c9.728 5.44 20.096 9.76 30.88 12.8l23.296 6.624V896h32v-62.816l23.296-6.592c10.784-3.072 21.12-7.36 30.88-12.8l21.12-11.84 44.48 44.448 22.624-22.624-44.48-44.48 11.84-21.12c5.44-9.728 9.76-20.096 12.8-30.88l6.624-23.296H896v-32h-62.816l-6.592-23.296zM688 768a80 80 0 1 1 0-160 80 80 0 0 1 0 160z m0-32a48 48 0 1 0 0-96 48 48 0 0 0 0 96z" p-id="23596"></path></svg>