<?xml version="1.0" standalone="no"?><!DOCTYPE svg PUBLIC "-//W3C//DTD SVG 1.1//EN" "http://www.w3.org/Graphics/SVG/1.1/DTD/svg11.dtd"><svg t="1653747546085" class="icon" viewBox="0 0 1092 1024" version="1.1" xmlns="http://www.w3.org/2000/svg" p-id="7454" xmlns:xlink="http://www.w3.org/1999/xlink" width="213.28125" height="200"><defs><style type="text/css"></style></defs><path d="M1037.43999969 242.88000031l-192-192A64.00000031 64.00000031 0 0 0 800 32H128a96 96 0 0 0-96 96v768a96 96 0 0 0 96 96h832.00000031a96 96 0 0 0 96-96V288.00000031a64.00000031 64.00000031 0 0 0-18.56000062-45.12zM992 896a31.99999969 31.99999969 0 0 1-31.99999969 31.99999969H128a31.99999969 31.99999969 0 0 1-31.99999969-31.99999969V128a31.99999969 31.99999969 0 0 1 31.99999969-31.99999969h640.00000031v127.99999969a96 96 0 0 0 96 96h127.99999969zM896 288.00000031h-31.99999969a64.00000031 64.00000031 0 0 1-64.00000031-64.00000031V96.00000031l192 192z" fill="#343231" p-id="7455"></path><path d="M528.00000031 255.99999969h159.99999938a16.00000031 16.00000031 0 0 0 0-31.99999969h-159.99999938a16.00000031 16.00000031 0 1 0 0 31.99999969zM528.00000031 351.99999969h159.99999938a16.00000031 16.00000031 0 0 0 0-31.99999969h-159.99999938a16.00000031 16.00000031 0 1 0 0 31.99999969zM512 432.00000031a16.00000031 16.00000031 0 0 0 16.00000031 15.99999938h384a16.00000031 16.00000031 0 1 0 0-31.99999969h-384a16.00000031 16.00000031 0 0 0-16.00000031 16.00000031zM912.00000031 608h-736.00000031a16.00000031 16.00000031 0 0 0 0 31.99999969h736.00000031a16.00000031 16.00000031 0 0 0 0-31.99999969zM912.00000031 704h-736.00000031a16.00000031 16.00000031 0 0 0 0 31.99999969h736.00000031a16.00000031 16.00000031 0 0 0 0-31.99999969zM912.00000031 800h-736.00000031a16.00000031 16.00000031 0 1 0 0 31.99999969h736.00000031a16.00000031 16.00000031 0 1 0 0-31.99999969zM912.00000031 512h-736.00000031a16.00000031 16.00000031 0 0 0 0 31.99999969h736.00000031a16.00000031 16.00000031 0 1 0 0-31.99999969zM192.00000031 447.99999969h223.99999969a31.99999969 31.99999969 0 0 0 31.99999969-31.99999969V224a31.99999969 31.99999969 0 0 0-31.99999969-31.99999969H192.00000031a31.99999969 31.99999969 0 0 0-32.00000062 31.99999969v192a31.99999969 31.99999969 0 0 0 32.00000062 31.99999969z m31.99999969-192h160.00000031v128.00000062H224z" fill="#343231" p-id="7456"></path></svg>