<?xml version="1.0" standalone="no"?><!DOCTYPE svg PUBLIC "-//W3C//DTD SVG 1.1//EN" "http://www.w3.org/Graphics/SVG/1.1/DTD/svg11.dtd"><svg t="1653747724377" class="icon" viewBox="0 0 1024 1024" version="1.1" xmlns="http://www.w3.org/2000/svg" p-id="11617" xmlns:xlink="http://www.w3.org/1999/xlink" width="200" height="200"><defs><style type="text/css"></style></defs><path d="M959.429891 639.666658 620.012528 639.666658l73.768097-73.768097c12.388145-12.387122 12.388145-32.473599 0-44.861744-12.387122-12.388145-32.473599-12.388145-44.861744 0L521.017886 648.936789c-0.38067 0.379647-0.751107 0.77055-1.112334 1.169639-0.130983 0.144286-0.252757 0.292666-0.38067 0.438998-0.211824 0.242524-0.424672 0.484024-0.629333 0.733711-0.179079 0.217964-0.348947 0.442068-0.521886 0.663102-0.14224 0.183172-0.286526 0.363274-0.425695 0.549515-0.189312 0.254803-0.36839 0.5137-0.549515 0.772596-0.112564 0.161682-0.228197 0.321318-0.338714 0.487094-0.181125 0.271176-0.354064 0.545422-0.527003 0.821715-0.101307 0.161682-0.204661 0.321318-0.303922 0.48607-0.163729 0.273223-0.319272 0.548492-0.473791 0.825808-0.100284 0.176009-0.200568 0.352017-0.296759 0.531096-0.140193 0.261966-0.273223 0.528026-0.405229 0.792039-0.101307 0.202615-0.203638 0.405229-0.300852 0.60989-0.11461 0.242524-0.223081 0.487094-0.330528 0.731664-0.105401 0.23536-0.209778 0.471744-0.309038 0.710175-0.090051 0.216941-0.172939 0.435928-0.257873 0.654916-0.106424 0.271176-0.209778 0.541329-0.309038 0.816598-0.067538 0.191358-0.12996 0.382717-0.193405 0.575098-0.102331 0.303922-0.202615 0.608867-0.295735 0.916882-0.051165 0.168846-0.097214 0.338714-0.145309 0.508583-0.093121 0.329505-0.186242 0.661056-0.26913 0.995677-0.038886 0.156566-0.071631 0.315178-0.10847 0.472767-0.079818 0.344854-0.157589 0.689708-0.227174 1.038656-0.031722 0.159636-0.057305 0.321318-0.085958 0.483001-0.062422 0.343831-0.12382 0.687662-0.174985 1.035586-0.026606 0.185218-0.047072 0.369414-0.070608 0.555655-0.040932 0.322341-0.084934 0.645706-0.115634 0.971118-0.024559 0.24764-0.038886 0.49528-0.057305 0.743944-0.020466 0.267083-0.044002 0.532119-0.057305 0.800225-0.022513 0.463558-0.032746 0.927115-0.035816 1.390673 0 0.058328-0.004093 0.11461-0.004093 0.172939s0.004093 0.11461 0.004093 0.172939c0.00307 0.463558 0.013303 0.927115 0.035816 1.390673 0.013303 0.26913 0.036839 0.533143 0.057305 0.800225 0.01842 0.24764 0.031722 0.49528 0.057305 0.743944 0.030699 0.325411 0.074701 0.648776 0.115634 0.971118 0.023536 0.186242 0.044002 0.370437 0.070608 0.555655 0.051165 0.347924 0.112564 0.692778 0.174985 1.036609 0.028653 0.160659 0.055259 0.321318 0.085958 0.481977 0.068562 0.348947 0.147356 0.693802 0.227174 1.038656 0.036839 0.157589 0.069585 0.316202 0.10847 0.472767 0.082888 0.334621 0.176009 0.665149 0.26913 0.995677 0.048095 0.169869 0.094144 0.339738 0.145309 0.508583 0.093121 0.308015 0.193405 0.61296 0.295735 0.916882 0.063445 0.192382 0.125867 0.384763 0.193405 0.575098 0.099261 0.275269 0.202615 0.545422 0.309038 0.816598 0.084934 0.218988 0.167822 0.437975 0.257873 0.654916 0.099261 0.23843 0.203638 0.474814 0.309038 0.710175 0.107447 0.24457 0.215918 0.48914 0.330528 0.731664 0.097214 0.204661 0.199545 0.406253 0.300852 0.60989 0.13303 0.265036 0.26606 0.531096 0.405229 0.792039 0.096191 0.179079 0.196475 0.355087 0.296759 0.531096 0.154519 0.277316 0.310062 0.552585 0.473791 0.825808 0.099261 0.163729 0.203638 0.324388 0.304945 0.488117 0.172939 0.275269 0.344854 0.548492 0.525979 0.819668 0.110517 0.164752 0.227174 0.325411 0.340761 0.488117 0.180102 0.258896 0.35918 0.517793 0.547469 0.771573 0.13917 0.186242 0.283456 0.366344 0.425695 0.549515 0.172939 0.222057 0.342808 0.446162 0.521886 0.663102 0.204661 0.249687 0.417509 0.490164 0.629333 0.733711 0.127913 0.146333 0.249687 0.294712 0.38067 0.438998 0.361227 0.399089 0.731664 0.788969 1.112334 1.169639l127.899972 127.899972c6.194072 6.195096 14.31196 9.29162 22.430872 9.29162s16.236799-3.096525 22.430872-9.29162c12.388145-12.387122 12.388145-32.473599 0-44.861744l-73.768097-73.768097 339.418386 0c17.520025 0 31.722492-14.202467 31.722492-31.722492S976.949916 639.666658 959.429891 639.666658z" p-id="11618"></path><path d="M639.627261 223.156476c0-17.520025-14.202467-31.722492-31.722492-31.722492L191.902146 191.433984c-17.520025 0-31.722492 14.202467-31.722492 31.722492s14.202467 31.722492 31.722492 31.722492l416.001599 0C625.424794 254.878968 639.627261 240.676501 639.627261 223.156476z" p-id="11619"></path><path d="M479.467561 414.015362c0-17.520025-14.202467-31.722492-31.722492-31.722492L191.902146 382.292869c-17.520025 0-31.722492 14.202467-31.722492 31.722492 0 17.520025 14.202467 31.722492 31.722492 31.722492l255.842922 0C465.265094 445.737854 479.467561 431.535387 479.467561 414.015362z" p-id="11620"></path><path d="M191.902146 574.175061c-17.520025 0-31.722492 14.202467-31.722492 31.722492s14.202467 31.722492 31.722492 31.722492L383.784338 637.620046c17.520025 0 31.722492-14.202467 31.722492-31.722492s-14.202467-31.722492-31.722492-31.722492L191.902146 574.175061z" p-id="11621"></path><path d="M959.429891 799.826358c-17.520025 0-31.722492 14.202467-31.722492 31.722492l0 75.708286c0 11.298324-9.191336 20.48966-20.48966 20.48966l-587.909877 0 0-32.238238c0-17.520025-14.202467-31.722492-31.722492-31.722492s-31.722492 14.202467-31.722492 31.722492l0 63.960731c0 16.09149 11.983939 29.375028 27.511587 31.435966 0.530073 0.145309 1.079588 0.232291 1.650593 0.248663 0.849344 0.024559 1.704828 0.037862 2.560312 0.037862l619.632369 0c41.620933 0 76.263941-30.454616 82.820264-70.246901 0.727571-2.665713 1.115404-5.472642 1.115404-8.368598l0-81.028455C991.152383 814.028824 976.949916 799.826358 959.429891 799.826358z" p-id="11622"></path><path d="M907.217738 160.220075l-50.024324 0c-17.520025 0-31.722492 14.202467-31.722492 31.722492 0 17.520025 14.202467 31.722492 31.722492 31.722492l50.024324 0c11.298324 0 20.48966 9.191336 20.48966 20.48966l0 264.60447c0 17.520025 14.202467 31.722492 31.722492 31.722492s31.722492-14.202467 31.722492-31.722492L991.152383 244.154719C991.152383 197.872626 953.498808 160.220075 907.217738 160.220075z" p-id="11623"></path><path d="M479.725434 830.532707c17.662265 0 31.980365-14.3181 31.980365-31.980365 0-17.405415-13.907755-31.552623-31.214932-31.960922l0-0.019443-364.297007 0c-11.298324 0-20.48966-9.191336-20.48966-20.48966L95.704201 116.233258c0-11.298324 9.191336-20.48966 20.48966-20.48966L683.613054 95.743598c11.298324 0 20.48966 9.191336 20.48966 20.48966l0 299.828716c0 17.520025 14.202467 31.722492 31.722492 31.722492s31.722492-14.202467 31.722492-31.722492l0-299.828716c0-46.282093-37.653575-83.934644-83.934644-83.934644L116.193861 32.298614c-46.282093 0-83.934644 37.652552-83.934644 83.934644l0 629.849058c0 46.282093 37.652552 83.934644 83.934644 83.934644l357.837898 0C475.879849 830.350558 477.780129 830.532707 479.725434 830.532707z" p-id="11624"></path></svg>