<?xml version="1.0" standalone="no"?><!DOCTYPE svg PUBLIC "-//W3C//DTD SVG 1.1//EN" "http://www.w3.org/Graphics/SVG/1.1/DTD/svg11.dtd"><svg t="1653747942770" class="icon" viewBox="0 0 1024 1024" version="1.1" xmlns="http://www.w3.org/2000/svg" p-id="13423" xmlns:xlink="http://www.w3.org/1999/xlink" width="200" height="200"><defs><style type="text/css"></style></defs><path d="M760.4 535.941c116.863 0 211.6 94.705 211.6 211.53C972 864.295 877.263 959 760.4 959s-211.6-94.705-211.6-211.53c0-116.824 94.737-211.529 211.6-211.529zM719 60c60.363 0 109.41 48.428 110.385 108.538l0.015 1.825V468.32c0 16.508-13.387 29.89-29.9 29.89-16.277 0-29.517-13.002-29.892-29.184l-0.008-0.706V170.363c0-27.657-22.204-50.13-49.763-50.576l-0.837-0.007H162.4c-27.666 0-50.146 22.196-50.593 49.747l-0.007 0.836V841.74c0 27.657 22.204 50.13 49.763 50.576l0.837 0.007h339.295c16.513 0 29.9 13.382 29.9 29.89 0 16.272-13.007 29.507-29.194 29.89H162.4c-60.363 0-109.41-48.428-110.385-108.538L52 841.74V170.363c0-60.342 48.444-109.374 108.574-110.348L162.4 60H719z m41.4 535.721c-83.837 0-151.8 67.94-151.8 151.75 0 83.808 67.963 151.749 151.8 151.749 83.837 0 151.8-67.94 151.8-151.75 0-83.808-67.963-151.749-151.8-151.749z m-0.252 278.207l-0.16-0.002-0.082-0.002h-0.048l-0.068-0.001-0.057-0.002h-0.02a30.062 30.062 0 0 1-0.236-0.006l-0.064-0.003h-0.04a26.564 26.564 0 0 1-0.886-0.043c-0.028-0.003-0.057-0.004-0.085-0.006a25.341 25.341 0 0 1-0.993-0.082l-0.072-0.008a29.739 29.739 0 0 1-6.197-1.306l-0.102-0.034a19.96 19.96 0 0 1-0.306-0.102l-0.148-0.051-0.241-0.085-0.206-0.074a25.416 25.416 0 0 1-0.89-0.341l-0.054-0.022-0.074-0.03c-0.31-0.126-0.618-0.258-0.925-0.395l-0.075-0.034-0.033-0.014a29.611 29.611 0 0 1-0.16-0.073c-0.005-0.004-0.01-0.006-0.016-0.008l-0.053-0.024-0.26-0.121-0.178-0.086-0.192-0.093-0.181-0.09c-0.091-0.045-0.182-0.09-0.273-0.137l-0.058-0.031a29.751 29.751 0 0 1-7.834-5.83l-0.076-0.08a28.287 28.287 0 0 1-0.853-0.925l-66.485-73.913-0.509-0.58c-10.499-12.284-9.338-30.766 2.75-41.632 12.278-11.037 31.183-10.035 42.225 2.24l14.567 16.194V652.627l0.008-0.705c0.375-16.182 13.615-29.185 29.892-29.185 16.513 0 29.9 13.382 29.9 29.89v113.468l14.567-16.193c11.042-12.275 29.947-13.277 42.226-2.24 12.087 10.866 13.248 29.348 2.749 41.632l-0.509 0.58-66.485 73.913c-0.277 0.313-0.56 0.622-0.852 0.925l-0.077 0.08a8.858 8.858 0 0 1-0.129 0.132l-0.125 0.128a29.773 29.773 0 0 1-7.58 5.57l-0.059 0.03-0.272 0.139-0.181 0.089-0.161 0.078c-0.23 0.111-0.46 0.219-0.692 0.324l-0.116 0.052a29.712 29.712 0 0 1-8.201 2.33c-0.037 0.003-0.073 0.008-0.11 0.013-0.129 0.017-0.258 0.033-0.388 0.048l-0.05 0.006-0.33 0.036-0.155 0.016a25.84 25.84 0 0 1-0.336 0.031l-0.116 0.01a29.23 29.23 0 0 1-0.505 0.038l-0.152 0.01a27.14 27.14 0 0 1-0.397 0.021l-0.02 0.001c-0.245 0.012-0.489 0.02-0.733 0.026h-0.02a30.14 30.14 0 0 1-0.691 0.008l0.403-0.002-0.28 0.002h-0.375zM413.1 680.793c16.513 0 29.9 13.382 29.9 29.89 0 16.272-13.007 29.507-29.194 29.882l-0.706 0.008H252.642c-16.513 0-29.9-13.382-29.9-29.89 0-16.272 13.007-29.507 29.194-29.882l0.706-0.008H413.1z m-160.274-206.93l373.328 2.299c16.513 0.101 29.817 13.566 29.715 30.073-0.1 16.272-13.189 29.427-29.378 29.702l-0.706 0.004-373.327-2.3c-16.513-0.101-29.817-13.566-29.716-30.073 0.1-16.272 13.189-29.427 29.378-29.702l0.706-0.004z m59.829-266.51a6.9 6.9 0 0 1 3.132 3.133l24.23 49.08 54.178 7.87a6.9 6.9 0 0 1 3.823 11.77l-39.2 38.2 9.254 53.94a6.9 6.9 0 0 1-10.01 7.275L309.6 353.152l-48.461 25.47a6.9 6.9 0 0 1-10.01-7.275l9.254-53.941-39.201-38.2a6.9 6.9 0 0 1 3.823-11.77l54.177-7.87 24.23-49.08a6.9 6.9 0 0 1 9.243-3.132zM627 269.23c16.513 0 29.9 13.382 29.9 29.89 0 16.272-13.007 29.507-29.194 29.882l-0.706 0.008H470.6c-16.513 0-29.9-13.382-29.9-29.89 0-16.272 13.007-29.507 29.194-29.882l0.706-0.008H627z" fill="#333333" p-id="13424"></path></svg>