<?xml version="1.0" standalone="no"?><!DOCTYPE svg PUBLIC "-//W3C//DTD SVG 1.1//EN" "http://www.w3.org/Graphics/SVG/1.1/DTD/svg11.dtd"><svg t="1653747956230" class="icon" viewBox="0 0 1024 1024" version="1.1" xmlns="http://www.w3.org/2000/svg" p-id="13567" xmlns:xlink="http://www.w3.org/1999/xlink" width="200" height="200"><defs><style type="text/css"></style></defs><path d="M760.4 535.941c116.863 0 211.6 94.705 211.6 211.53C972 864.295 877.263 959 760.4 959s-211.6-94.705-211.6-211.53c0-116.824 94.737-211.529 211.6-211.529zM719 60c60.363 0 109.41 48.428 110.385 108.538l0.015 1.825V468.32c0 16.508-13.387 29.89-29.9 29.89-16.277 0-29.517-13.002-29.892-29.184l-0.008-0.706V170.363c0-27.657-22.204-50.13-49.763-50.576l-0.837-0.007H162.4c-27.666 0-50.146 22.196-50.593 49.747l-0.007 0.836V841.74c0 27.657 22.204 50.13 49.763 50.576l0.837 0.007h339.295c16.513 0 29.9 13.382 29.9 29.89 0 16.272-13.007 29.507-29.194 29.89H162.4c-60.363 0-109.41-48.428-110.385-108.538L52 841.74V170.363c0-60.342 48.444-109.374 108.574-110.348L162.4 60H719z m41.4 535.721c-83.837 0-151.8 67.94-151.8 151.75 0 83.808 67.963 151.749 151.8 151.749 83.837 0 151.8-67.94 151.8-151.75 0-83.808-67.963-151.749-151.8-151.749z m0.403 24.72l-0.403-0.003a30.512 30.512 0 0 1 0.904 0.013l0.151 0.005a18.952 18.952 0 0 1 0.508 0.022 18.93 18.93 0 0 1 0.45 0.027 27.316 27.316 0 0 1 0.965 0.08l0.09 0.009c0.13 0.013 0.26 0.027 0.388 0.042l0.027 0.003a29.7 29.7 0 0 1 7.147 1.743l0.015 0.006c0.728 0.277 1.448 0.583 2.157 0.92l0.205 0.098c0.209 0.1 0.417 0.204 0.624 0.31l0.054 0.028a29.747 29.747 0 0 1 7.533 5.524l0.037 0.036c0.412 0.416 0.81 0.841 1.193 1.275l66.485 73.913 0.509 0.58c10.499 12.284 9.338 30.766-2.75 41.632-12.278 11.038-31.183 10.035-42.225-2.24L790.3 728.271v113.468c0 16.508-13.387 29.89-29.9 29.89-16.277 0-29.517-13.002-29.892-29.184l-0.008-0.706V728.27l-14.567 16.194c-11.042 12.275-29.947 13.278-42.226 2.24-12.087-10.866-13.248-29.348-2.749-41.631l0.509-0.58 66.485-73.914c0.374-0.424 0.762-0.84 1.164-1.246a29.784 29.784 0 0 1 7.598-5.59c0.02-0.008 0.037-0.018 0.056-0.027a26.757 26.757 0 0 1 0.828-0.408l0.208-0.097 0.104-0.048 0.025-0.012 0.34-0.154 0.059-0.025 0.03-0.014 0.285-0.124 0.18-0.075a17.963 17.963 0 0 1 0.594-0.243 33.104 33.104 0 0 1 1.169-0.433l0.11-0.037a29.701 29.701 0 0 1 6.145-1.4l0.114-0.012 0.268-0.03 0.182-0.018 0.174-0.017c0.27-0.025 0.538-0.047 0.807-0.065l0.042-0.002 0.182-0.012a30.096 30.096 0 0 1 0.675-0.032l0.122-0.004 0.12-0.004 0.31-0.007 0.063-0.001 0.145-0.002 0.097-0.001h0.128l0.124-0.001h0.123l0.28 0.002zM413.1 680.792c16.513 0 29.9 13.382 29.9 29.89 0 16.272-13.007 29.507-29.194 29.882l-0.706 0.008H252.642c-16.513 0-29.9-13.382-29.9-29.89 0-16.272 13.007-29.507 29.194-29.882l0.706-0.008H413.1z m-160.274-206.93l373.328 2.299c16.513 0.101 29.817 13.566 29.715 30.073-0.1 16.272-13.189 29.427-29.378 29.702l-0.706 0.004-373.327-2.3c-16.513-0.101-29.817-13.566-29.716-30.073 0.1-16.272 13.189-29.427 29.378-29.702l0.706-0.004z m59.829-266.51a6.9 6.9 0 0 1 3.132 3.133l24.23 49.08 54.178 7.87a6.9 6.9 0 0 1 3.823 11.77l-39.2 38.2 9.254 53.94a6.9 6.9 0 0 1-10.01 7.275L309.6 353.152l-48.461 25.47a6.9 6.9 0 0 1-10.01-7.275l9.254-53.941-39.201-38.2a6.9 6.9 0 0 1 3.823-11.77l54.177-7.87 24.23-49.08a6.9 6.9 0 0 1 9.243-3.132zM627 269.23c16.513 0 29.9 13.382 29.9 29.89 0 16.272-13.007 29.507-29.194 29.882l-0.706 0.008H470.6c-16.513 0-29.9-13.382-29.9-29.89 0-16.272 13.007-29.507 29.194-29.882l0.706-0.008H627z" fill="#333333" p-id="13568"></path></svg>