<?xml version="1.0" standalone="no"?><!DOCTYPE svg PUBLIC "-//W3C//DTD SVG 1.1//EN" "http://www.w3.org/Graphics/SVG/1.1/DTD/svg11.dtd"><svg t="1653748799993" class="icon" viewBox="0 0 1024 1024" version="1.1" xmlns="http://www.w3.org/2000/svg" p-id="24505" xmlns:xlink="http://www.w3.org/1999/xlink" width="200" height="200"><defs><style type="text/css"></style></defs><path d="M800 32h-576a128 128 0 0 0-128 128v704a128 128 0 0 0 128 128h576a128 128 0 0 0 128-128v-704a128 128 0 0 0-128-128z m64 832a64 64 0 0 1-64 64h-576a64 64 0 0 1-64-64v-704a64 64 0 0 1 64-64h576a64 64 0 0 1 64 64v704z" fill="" p-id="24506"></path><path d="M512 416a128 128 0 1 0-0.064-256.064A128 128 0 0 0 512 416z m0-191.488a63.488 63.488 0 1 1 0 126.976 63.488 63.488 0 0 1 0-126.976zM512 544a128 128 0 0 1 128 128h64a192 192 0 0 0-384 0h64a128 128 0 0 1 128-128zM736 736h-448a32 32 0 0 0 0 64h448a32 32 0 0 0 0-64z" fill="" p-id="24507"></path></svg>